<?xml version="1.0" standalone="no"?>
<!DOCTYPE svg PUBLIC "-//W3C//DTD SVG 20010904//EN"
 "http://www.w3.org/TR/2001/REC-SVG-20010904/DTD/svg10.dtd">
<svg version="1.0" xmlns="http://www.w3.org/2000/svg"
 width="512.000000pt" height="512.000000pt" viewBox="0 0 512.000000 512.000000"
 preserveAspectRatio="xMidYMid meet">
<metadata>
Created by potrace 1.11, written by Peter Selinger 2001-2013
</metadata>
<g transform="translate(0.000000,512.000000) scale(0.100000,-0.100000)"
fill="#000000" stroke="none">
<path d="M2359 5006 c-2 -2 -35 -7 -74 -10 -38 -4 -95 -11 -125 -16 -30 -5
-71 -12 -90 -15 -19 -3 -42 -8 -50 -10 -8 -2 -26 -6 -40 -9 -77 -13 -324 -90
-425 -131 -556 -229 -1026 -657 -1294 -1180 -32 -63 -64 -127 -69 -142 -116
-303 -151 -441 -182 -708 -11 -95 -5 -444 9 -530 6 -38 14 -86 17 -105 19
-122 90 -372 136 -480 180 -422 427 -745 783 -1025 60 -47 235 -164 256 -170
10 -4 19 -11 19 -16 0 -5 4 -9 9 -9 4 0 41 -18 80 -39 138 -76 458 -201 577
-226 11 -2 42 -9 69 -15 54 -13 60 -14 150 -29 164 -27 220 -32 417 -35 445
-6 859 92 1253 298 100 52 317 186 335 206 3 4 28 23 55 44 110 83 264 229
354 336 25 30 49 57 52 60 10 8 149 198 149 204 0 2 18 31 39 64 60 90 175
333 220 465 48 141 76 252 101 402 5 33 12 76 15 95 10 59 13 431 4 505 -16
143 -20 167 -40 257 -79 360 -219 667 -432 946 -44 58 -96 124 -116 145 -76
84 -189 195 -251 247 -36 30 -67 57 -70 60 -3 3 -23 18 -45 35 -22 16 -42 32
-45 35 -9 10 -174 116 -247 158 -62 37 -279 143 -308 151 -5 2 -19 7 -30 11
-185 69 -392 125 -560 149 -38 6 -88 13 -110 16 -44 7 -490 16 -496 11z"/>
</g>
</svg>
